<svg id="Grupo_27020" data-name="Grupo 27020" xmlns="http://www.w3.org/2000/svg" width="56" height="53.351" viewBox="0 0 56 53.351">
  <g id="Grupo_13080" data-name="Grupo 13080">
    <path id="Caminho_6748" data-name="Caminho 6748" d="M542.082,427.977h-.045a2.086,2.086,0,0,1-2.042-2.13,6.786,6.786,0,0,0-1.466-4.344,6.585,6.585,0,0,0-2.906-2.031,2.086,2.086,0,1,1,1.392-3.933,10.755,10.755,0,0,1,4.748,3.328,10.866,10.866,0,0,1,2.4,7.068,2.086,2.086,0,0,1-2.085,2.042" transform="translate(-496.9 -407.187)" fill="#67deff"/>
    <g id="Grupo_13032" data-name="Grupo 13032">
      <path id="Caminho_6749" data-name="Caminho 6749" d="M445.8,442.882a1.948,1.948,0,0,1-1.481-.683c-4.6-5.394-8.743-9.8-12.4-13.7-9.106-9.7-14.6-15.555-14.394-23.043a16.268,16.268,0,0,1,4.714-11.282,17.21,17.21,0,0,1,11.165-4.644l.1,0a16.01,16.01,0,0,1,12.011,5.949,16.011,16.011,0,0,1,12.012-5.949l.1,0a17.208,17.208,0,0,1,11.164,4.644,16.266,16.266,0,0,1,4.715,11.282c.2,7.137-4.177,11.91-12.121,20.574-3.795,4.139-8.518,9.29-14.084,16.129a1.947,1.947,0,0,1-1.488.718H445.8M433.56,393.427a13.3,13.3,0,0,0-8.6,3.54c-.031.031-.063.061-.1.09a12.274,12.274,0,0,0-3.445,8.512c-.164,5.883,4.919,11.3,13.34,20.268,3.278,3.492,6.946,7.4,11,12.07,5-6.042,9.268-10.7,12.759-14.505,8-8.73,11.247-12.487,11.1-17.833a12.272,12.272,0,0,0-3.455-8.521c-.026-.023-.061-.056-.086-.081a13.3,13.3,0,0,0-8.6-3.54c-4.659.023-8.325,3.237-10.206,6.245a1.949,1.949,0,0,1-1.651.915h-.205a1.95,1.95,0,0,1-1.652-.915c-1.881-3.008-5.548-6.222-10.206-6.245" transform="translate(-417.521 -389.531)" fill="#fff"/>
    </g>
  </g>
</svg>
